<?xml version="1.0" encoding="utf-8"?>
<!-- Generator: Adobe Illustrator 19.1.0, SVG Export Plug-In . SVG Version: 6.00 Build 0)  -->
<svg version="1.1" id="Layer_1" xmlns="http://www.w3.org/2000/svg" xmlns:xlink="http://www.w3.org/1999/xlink" x="0px" y="0px"
	 viewBox="-57 148.8 496.2 496.2" style="enable-background:new -57 148.8 496.2 496.2;" xml:space="preserve">
<style type="text/css">
	.st0{fill:#334D5C;}
	.st1{fill:#EFE9D8;}
	.st2{fill:#EB9783;}
	.st3{fill:#F9ECEA;}
	.st4{fill:#EFDFDC;}
	.st5{fill:#603F26;}
	.st6{fill:#F4F2E9;}
	.st7{fill:#FFFFFF;}
	.st8{fill:#49210D;}
	.st9{fill:#845938;}
	.st10{fill:#E0BF36;}
	.st11{fill:#EA4949;}
	.st12{fill:#775030;}
</style>
<path class="st0" d="M-57,396.9c0-137,111.1-248.1,248.1-248.1c137,0,248.1,111.1,248.1,248.1c0,137-111.1,248.1-248.1,248.1
	C54.1,645-57,533.9-57,396.9z"/>
<g id="Layer_2">
	<rect x="-57" y="148.8" class="st0" width="496.2" height="496.2"/>
</g>
<path class="st1" d="M230.7,217.1c0,0-14.5-5.5-37.8-6v0c-0.6,0-1.2,0-1.8,0c-0.6,0-1.2,0-1.8,0v0c-23.3,0.5-37.8,6-37.8,6V252h79.2
	V217.1z"/>
<rect x="151.5" y="220.4" class="st2" width="79.2" height="34.9"/>
<path class="st3" d="M254,266.3c-2.5-5.3-23.3-16.8-23.3-16.8h-79.2c0,0-20.8,11.5-23.3,16.8C121.9,279.7,260.3,279.7,254,266.3z"/>
<path class="st4" d="M254,266.3H128.2c-6.3,13.4-7.9,67.6-7.1,126.6h140C261.9,333.9,260.3,279.7,254,266.3z"/>
<rect x="192.4" y="316.8" class="st5" width="21.4" height="40.2"/>
<path class="st6" d="M213.6,314.3c0-26.3-10.1-32.3-22.7-32.3s-22.7,6-22.7,32.3c0,8.9,1.6,11.4,4,16.8
	c5.2,11.8,14.3,18.3,18.7,18.3c4.4,0,13.5-6.4,18.7-18.3C212,325.8,213.6,323.2,213.6,314.3z"/>
<path class="st7" d="M168.3,314.3c0,8.9,1.6,11.4,4,16.8c5.2,11.7,14.2,18.1,18.6,18.2V282C178.4,282.1,168.3,288.1,168.3,314.3z"/>
<path class="st8" d="M168.5,381.1c0,0,0.2-0.1,0.6-0.3c0,0,0,0,0,0L168.5,381.1z"/>
<path class="st9" d="M183.5,294.5l0.8-14.3c-12.6,0-22.5,7.8-26.6,27.2c-1,4.9-3.9,26.9,9.2,54.4c6.9,14.5,4,17.9,2.2,18.9
	c0.9-0.2,19.6-4.2,12.4-21.6c-0.7-1.8,1.3-13.5-0.8-15.5c-0.1-0.1-0.2-0.2-0.3-0.4c-3-3-6-7.1-8.2-12.2c-0.9-2-1.7-3.7-2.3-5.4
	C168.9,322.9,175.9,299.1,183.5,294.5z"/>
<path class="st6" d="M232.6,368.9c-1.7-6.4-14.2-11.8-31-13.5c-0.3-0.4-3-5.2,0.3-15.1h-22.1c3.2,9.7,0.7,14.5,0.3,15.1
	c-16.8,1.6-29.2,7.1-31,13.5c-0.9,3.5-2,10-2.9,16.3l91.1,8.7C236.6,387.7,233.6,372.4,232.6,368.9z"/>
<path class="st7" d="M179.9,340.3c3.2,9.7,0.7,14.5,0.3,15.1c-16.8,1.6-29.2,7.1-31,13.5c-0.9,3.5-2,10-2.9,16.3l44.5,4.3v-49.2
	L179.9,340.3L179.9,340.3z"/>
<path class="st2" d="M191.9,386c-30.3-9.7-54.4-9.8-71-7.5c0,0.1,0,0,0,0.1c0,79.7,6,174,10.7,188.7c3.1,9.8,5.9,15.5,28.2,15.5
	h30.9h0.8h30.9c22.3,0,25.1-5.8,28.2-15.5c4.4-13.8,9.5-97.5,10.5-173.6C244.9,395.8,221.6,395.5,191.9,386z"/>
<g>
	<path class="st10" d="M261.2,378.2L261.2,378.2c0,0.1,0,0.1,0,0.2C261.2,378.3,261.2,378.3,261.2,378.2z"/>
	<path class="st10" d="M261.1,393.6C261.1,393.6,261.1,393.6,261.1,393.6C261.1,393.6,261.1,393.6,261.1,393.6L261.1,393.6z"/>
	<path class="st10" d="M120.9,370.8C120.9,370.8,120.9,370.8,120.9,370.8C120.9,370.8,120.9,370.8,120.9,370.8z"/>
</g>
<path class="st11" d="M261.2,385.7c0-2.4,0-4.9,0.1-7.3c0-0.1,0-0.1,0-0.2c-16.2,2.2-39.5,1.9-69.3-7.6c-30.3-9.7-54.4-9.8-71.1-7.5
	c0,2.5,0,5.1,0,7.6c0,0,0,0,0,0c0,2.6,0,5.1,0,7.7c16.6-2.3,40.7-2.2,71,7.5c29.7,9.5,53,9.8,69.1,7.6c0,0,0,0,0,0
	c0-2.5,0.1-5,0.1-7.5C261.2,385.9,261.2,385.8,261.2,385.7z"/>
<path class="st12" d="M183.5,294.5c0,0,5.9,4.4,9.8,7.5c10.7,8.7,16.8,16.6,17.9,26.3c0.7,6.2-4.2,16.6-6.2,20.1
	c-1.9,3.2-5.2,7.6-5.9,9.4c-7.4,17.8,13.8,23.1,13.8,23.1l0.6,0.1c0,0-8.6-2.8,1.6-19.2c1.6-2.5,7.3-8.4,9.7-15.9
	c4.1-13.3,2.3-25.2,0.8-31.3c-4.1-15.9-6.6-22-16.6-28.4c-7.3-4.7-11.7-6.1-24.6-6.1L183.5,294.5z"/>
<path class="st1" d="M202,219.8c0,4.9-4.9,8.9-11,8.9s-11-4-11-8.9H202z"/>
<g>
	<path class="st7" d="M229.7,454.8h-77.2c-1.7,0-3.1-1.4-3.1-3.1s1.4-3.1,3.1-3.1h77.2c1.7,0,3.1,1.4,3.1,3.1
		C232.8,453.4,231.4,454.8,229.7,454.8z"/>
	<path class="st7" d="M229.7,435.5h-77.2c-1.7,0-3.1-1.4-3.1-3.1s1.4-3.1,3.1-3.1h77.2c1.7,0,3.1,1.4,3.1,3.1
		S231.4,435.5,229.7,435.5z"/>
	<path class="st7" d="M229.7,474.1h-77.2c-1.7,0-3.1-1.4-3.1-3.1c0-1.7,1.4-3.1,3.1-3.1h77.2c1.7,0,3.1,1.4,3.1,3.1
		C232.8,472.7,231.4,474.1,229.7,474.1z"/>
</g>
</svg>
